<svg xmlns="http://www.w3.org/2000/svg" width="44" height="44" viewBox="0 0 44 44">
    <g fill="none" fill-rule="evenodd">
        <g transform="translate(2 2)">
            <circle cx="20" cy="20" r="20" fill="#EFEFEF"/>
            <path fill="#737373" fill-opacity=".483" d="M15.444 26c1.394.638 2.931 1 4.556 1s3.169-.362 4.556-1H25.6c4.637 0 8.4 3.763 8.4 8.4l-.001-.116C30.39 37.82 25.45 40 20 40c-5.45 0-10.392-2.18-13.999-5.716C6.063 29.7 9.801 26 14.4 26zM20 8c4.419 0 8 3.581 8 8 0 4.419-3.581 8-8 8-4.419 0-8-3.581-8-8 0-4.419 3.581-8 8-8z"/>
        </g>
    </g>
</svg>
