<svg xmlns="http://www.w3.org/2000/svg" width="144" height="64" viewBox="0 0 144 64">
  <g fill="none" fill-rule="evenodd">
    <path fill="#C24631" d="M55.269 22.87c.382-.058.412-.034.421.351.002.068 0 .134 0 .2 0 6.334.025 12.668-.01 19-.014 2.573-.534 5.055-1.732 7.356-.704 1.354-1.657 2.481-2.982 3.26-1.044.613-2.178.9-3.375.954-1.189.053-2.353-.123-3.498-.43-.925-.247-1.824-.569-2.703-.948-.354-.152-.373-.175-.291-.54.294-1.303.596-2.607.896-3.91.018-.077.04-.155.107-.208.163.022.252.15.364.237.67.51 1.405.849 2.24.974 1.376.204 2.892-.517 3.59-1.728.385-.667.592-1.4.75-2.149.215-1.013.256-2.044.294-3.074.008-.24-.009-.477-.079-.758-.131.141-.132.29-.163.419-.16.685-.423 1.322-.823 1.902-.66.954-1.588 1.466-2.72 1.523-1.712.086-3.272-.43-4.67-1.42-.864-.614-1.417-1.47-1.776-2.463-.298-.823-.465-1.676-.549-2.544-.158-1.655-.195-3.313-.153-4.975.072-2.865.142-5.727.134-8.594 0-.226-.008-.454-.004-.682.009-.386.037-.429.414-.511 1.164-.26 2.33-.512 3.497-.765l2.022-.436c.48-.103.496-.086.51.397.062 2.088.04 4.177.081 6.264.04 2.022.089 4.042.164 6.062.043 1.123.084 2.248.224 3.364.106.84.74 1.363 1.566 1.29.436-.04.772-.264 1.046-.594.276-.335.45-.726.574-1.138.224-.748.323-1.52.328-2.299.01-1.217-.014-2.436-.013-3.655.002-2.65.011-5.3.018-7.952.002-.612.003-.616.592-.726l5.63-1.043.079-.012zm41.468.052c1.987-.36 3.481.364 4.485 2.116.104.184.198.373.313.59.14-.126.108-.239.108-.34.004-.268-.002-.535-.002-.803 0-.444.027-.486.44-.56 1.865-.337 3.73-.672 5.595-1.005.396-.07.446-.027.458.366.005.147.002.294.002.441-.002 5.769-.004 11.539-.004 17.307-.001 1.084.026 2.169-.085 3.25-.152 1.484-.426 2.936-.94 4.34-.682 1.858-1.883 3.229-3.633 4.127-1.21.62-2.471 1.015-3.831 1.104-1.945.127-3.759-.321-5.489-1.189-.059-.03-.116-.063-.173-.097-.308-.186-.336-.233-.242-.584.281-1.033.57-2.062.855-3.093.053-.194.098-.39.164-.579.065-.19.14-.21.287-.073.905.85 2.002.966 3.157.845.303-.03.603-.093.903-.14.835-.128 1.42-.616 1.858-1.316.388-.62.602-1.31.74-2.023.251-1.31.267-2.632.155-3.958-.006-.066-.011-.133-.088-.198-.127.054-.112.193-.139.294-.1.403-.214.8-.385 1.18-.656 1.46-1.826 2.133-3.365 2.225-.745.044-1.484-.044-2.21-.207-1.158-.26-2.09-.895-2.833-1.815-.759-.938-1.248-2.014-1.548-3.182-.057-.223-.075-.448-.077-.677-.027-2.743-.03-5.489.022-8.231.02-.976.009-1.954.127-2.928.05-.412.118-.82.219-1.223.277-1.102.897-1.958 1.831-2.581 1.018-.68 2.124-1.166 3.325-1.383zm-70.944-8.82h.1c.293.014.332.056.24.337-.186.573-.385 1.14-.576 1.71-.269.8-.532 1.6-.802 2.397-.134.397-.155.418-.567.413-1.023-.013-2.04.029-3.043.249-.429.094-.848.216-1.238.425-.513.275-.795.688-.791 1.288.005.71-.011 1.42-.003 2.13.005.447.068.507.517.508 1.59.005 3.18.002 4.771.003.682 0 .69.008.69.694v3.695c0 .08.001.16-.003.24-.019.333-.074.395-.407.4-.544.008-1.087.003-1.63.003H19.75c-.12 0-.238.006-.358.008-.174.005-.272.092-.28.27-.006.161-.01.322-.01.482v17.218c.004.569.025.59-.66.713l-5.323.95c-.365.065-.425.017-.435-.35-.01-.32-.004-.642-.004-.964V29.534c0-.724-.002-.718-.728-.77-.528-.04-1.055-.1-1.582-.155-.31-.033-.36-.08-.365-.403-.008-.656-.004-1.313-.004-1.968 0-.656-.003-1.312.002-1.968.003-.438.067-.498.511-.52l1.587-.092c.423-.024.485-.072.49-.5.012-1.032.064-2.06.183-3.085.108-.931.268-1.85.547-2.751.37-1.196 1.182-1.974 2.279-2.476.768-.352 1.594-.489 2.426-.582 1.399-.157 2.803-.166 4.208-.16 1.153.004 2.306 0 3.46 0 .065 0 .132-.005.198-.002zm8.347.085c.47-.091.483-.049.483.501v28.99c0 .503-.045.483-.695.605l-5.393 1.013c-.54.101-.554.087-.554-.48V15.978c.003-.552.01-.56.56-.671l5.498-1.1zm31.798 8.673c.163-.028.258.033.259.211 0 .133.004.267.004.4V43.47c-.003.603-.003.601-.596.72-1.833.365-3.665.732-5.498 1.096-.537.108-.55.1-.55-.472V24.715l.001-.1c.013-.368.036-.41.39-.487 1.088-.237 2.178-.467 3.267-.699l2.45-.518c.091-.02.182-.037.273-.051zm14.731-.099c1.622-.016 3.089.434 4.339 1.502 1.035.883 1.591 2.05 1.865 3.37.088.42.115.847.114 1.277v14.777c-.01.433-.035.473-.459.555-1.847.358-3.695.711-5.543 1.065-.079.016-.158.023-.238.028-.11.006-.18-.05-.187-.16-.01-.147-.014-.295-.014-.442-.001-4.699-.004-9.397.003-14.095.001-.656-.19-1.24-.527-1.781-.424-.681-1.044-.89-1.783-.61-.532.204-.966.553-1.359.96-.108.112-.148.25-.152.401-.005.175-.007.348-.007.522 0 4.431 0 8.862-.002 13.293 0 .758.031.723-.714.865-1.757.33-3.515.667-5.272 1.001-.04.008-.079.016-.118.021-.374.052-.413.02-.424-.363-.003-.093-.001-.187-.001-.281V24.95c0-.81-.029-.744.724-.91l5.164-1.135c.052-.012.104-.028.156-.035.258-.034.302 0 .325.263.06.68.057 1.365.07 2.046.002.14-.033.293.079.434.154-.087.182-.24.246-.364.303-.59.696-1.108 1.2-1.535.726-.614 1.561-.944 2.515-.953zm56.908-8.743c.139 0 .329-.072.405.073.072.14-.09.263-.164.383-3.742 6.084-7.486 12.167-11.231 18.25-2.477 4.024-4.958 8.047-7.428 12.077-.188.308-.392.445-.76.442-1.884-.018-3.766-.008-5.65-.008l-.079-.001c-.397-.01-.437-.047-.448-.433-.004-.134-.001-.267-.001-.402v-22.25c0-.162.002-.322-.002-.482-.011-.436-.054-.474-.464-.392-.43.086-.857.182-1.284.274-.078.017-.156.04-.234.046-.14.012-.233-.056-.251-.198-.016-.118-.019-.24-.019-.36l-.001-4.82c0-.053 0-.108.003-.16.015-.345.04-.388.376-.456.635-.13 1.275-.246 1.914-.364 1.98-.367 3.962-.731 5.942-1.1.687-.128.688-.133.688.575v8.395l.001 8.393c0 .208-.039.425.08.644.196-.102.258-.288.351-.439 1.38-2.222 2.756-4.45 4.132-6.673 2.17-3.51 4.346-7.014 6.505-10.53.223-.364.476-.5.897-.496 2.24.02 4.481.008 6.722.012zm-36.654 14.527c-.544-.709-1.498-.888-2.24-.388-.664.451-1.058 1.099-1.064 1.916-.015 2.636-.005 5.27-.005 7.904 0 .337.05.668.167.984.373 1.002 1.4 1.433 2.334.928.784-.421 1.268-1.08 1.269-2.023v-3.933c0-1.35-.004-2.7.002-4.052.003-.505-.161-.945-.463-1.336zM65.95 14.149c.148-.02.23.048.242.195.01.106.01.213.01.32v5.117l-.003.1c-.017.292-.045.338-.337.406-.542.125-1.087.237-1.632.352l-4.081.867c-.58.123-.59.118-.59-.464l-.001-3.852.001-1.325c.002-.417.03-.455.428-.535 1.922-.385 3.845-.765 5.768-1.147.065-.014.13-.026.195-.034z"></path>
  </g>
</svg>